HIERARCHY
ROOT Hips
{
	OFFSET 0.000000 0.000000 0.000000
	CHANNELS 6 Xposition Yposition Zposition Zrotation Yrotation Xrotation 
	JOINT LeftUpLeg_virtual
	{
		OFFSET 0.000000 0.000000 0.000000
		CHANNELS 3 Zrotation Yrotation Xrotation
		JOINT LeftUpLeg
		{
			OFFSET 10.205400 -3.823500 0.155100
			CHANNELS 3 Zrotation Yrotation Xrotation
			JOINT LeftLeg
			{
				OFFSET 0.708757 -12.982077 0.567790
				CHANNELS 3 Zrotation Yrotation Xrotation
				JOINT LeftFoot
				{
					OFFSET -0.708756 -10.717838 -2.184338
					CHANNELS 3 Zrotation Yrotation Xrotation
					JOINT LeftToeBase
					{
						OFFSET 0.108149 -7.191104 7.560241
						CHANNELS 3 Zrotation Yrotation Xrotation
						End Site
						{
							OFFSET 0.000000 0.000000 0.000000
						}
					}
				}
			}
		}
	}
	JOINT RightUpLeg_virtual
	{
		OFFSET 0.000000 0.000000 0.000000
		CHANNELS 3 Zrotation Yrotation Xrotation
		JOINT RightUpLeg
		{
			OFFSET -10.205400 -3.823500 0.005500
			CHANNELS 3 Zrotation Yrotation Xrotation
			JOINT RightLeg
			{
				OFFSET -0.708756 -12.982134 0.610632
				CHANNELS 3 Zrotation Yrotation Xrotation
				JOINT RightFoot
				{
					OFFSET 0.708754 -10.717769 -1.945823
					CHANNELS 3 Zrotation Yrotation Xrotation
					JOINT RightToeBase
					{
						OFFSET -0.108140 -7.191069 7.372968
						CHANNELS 3 Zrotation Yrotation Xrotation
						End Site
						{
							OFFSET 0.000000 0.000000 0.000000
						}
					}
				}
			}
		}
	}
	JOINT Spine_virtual
	{
		OFFSET 0.000000 0.000000 0.000000
		CHANNELS 3 Zrotation Yrotation Xrotation
		JOINT Spine
		{
			OFFSET 0.000000 6.876099 0.125700
			CHANNELS 3 Zrotation Yrotation Xrotation
			JOINT Spine1
			{
				OFFSET 0.000000 8.022060 0.146608
				CHANNELS 3 Zrotation Yrotation Xrotation
				JOINT Spine2
				{
					OFFSET 0.000000 9.168068 0.167552
					CHANNELS 3 Zrotation Yrotation Xrotation
					JOINT Neck_virtual
					{
						OFFSET 0.000000 0.000000 0.000000
						CHANNELS 3 Zrotation Yrotation Xrotation
						JOINT Neck
						{
							OFFSET 0.000000 10.314075 0.188496
							CHANNELS 3 Zrotation Yrotation Xrotation
							JOINT Head
							{
								OFFSET 0.000000 7.643700 -2.377400
								CHANNELS 3 Zrotation Yrotation Xrotation
								End Site
								{
									OFFSET 0.000000 0.000000 0.000000
								}
							}
						}
					}
					JOINT LeftShoulder_virtual
					{
						OFFSET 0.000000 0.000000 0.000000
						CHANNELS 3 Zrotation Yrotation Xrotation
						JOINT LeftShoulder
						{
							OFFSET 4.392200 8.824978 0.174984
							CHANNELS 3 Zrotation Yrotation Xrotation
							JOINT LeftArm
							{
								OFFSET 8.771219 -2.981674 -0.026999
								CHANNELS 3 Zrotation Yrotation Xrotation
								JOINT LeftForeArm
								{
									OFFSET 8.512804 0.000000 -0.000000
									CHANNELS 3 Zrotation Yrotation Xrotation
									JOINT LeftHand
									{
										OFFSET 18.484802 0.000000 -0.000000
										CHANNELS 3 Zrotation Yrotation Xrotation
										End Site
										{
											OFFSET 0.000000 0.000000 0.000000
										}
									}
								}
							}
						}
					}
					JOINT RightShoulder_virtual
					{
						OFFSET 0.000000 0.000000 0.000000
						CHANNELS 3 Zrotation Yrotation Xrotation
						JOINT RightShoulder
						{
							OFFSET -4.392200 8.824993 0.141379
							CHANNELS 3 Zrotation Yrotation Xrotation
							JOINT RightArm
							{
								OFFSET -8.771282 -2.981682 -0.094208
								CHANNELS 3 Zrotation Yrotation Xrotation
								JOINT RightForeArm
								{
									OFFSET -8.494598 0.000000 0.000000
									CHANNELS 3 Zrotation Yrotation Xrotation
									JOINT RightHand
									{
										OFFSET -18.483803 0.000000 0.000001
										CHANNELS 3 Zrotation Yrotation Xrotation
										End Site
										{
											OFFSET 0.000000 0.000000 0.000000
										}
									}
								}
							}
						}
					}
				}
			}
		}
	}
}
MOTION
Frames: 13
Frame Time: 0.033333
16.534204 34.517906 1.615977 179.973477 6.968737 -179.222661 -0.719323 -2.360074 9.383928 -10.283934 -4.513486 -22.120710 18.116619 6.944019 18.698548 -5.932188 4.536302 0.911761 0.000000 0.000000 0.000000 0.997678 0.279619 8.307476 6.203795 16.261454 -20.258942 -8.317524 3.969378 16.950521 10.510484 5.375986 -0.870711 0.000000 0.000000 0.000000 1.435665 0.583423 -7.771443 -1.678390 -1.353701 -7.760437 -0.107398 -2.238453 11.709580 0.019605 -0.105072 0.128718 -0.465279 0.012323 14.943841 8.275617 -7.009636 19.114348 0.000000 0.000000 0.000000 0.540779 0.724472 11.676050 -15.836938 -14.400187 1.294253 -51.578221 20.318916 10.383735 -2.330493 -34.345558 1.682666 0.000000 0.000000 0.000000 -2.497803 1.777293 11.382488 20.991067 3.381004 1.074320 50.222586 -16.299075 16.632713 -6.046619 30.304778 -4.691213 0.000000 0.000000 0.000000 
16.512400 34.526333 1.619955 -179.949994 6.273730 -178.919046 -0.215985 -2.038666 9.629209 -11.002983 -4.527577 -21.772994 18.305926 7.108051 18.981097 -5.725497 4.704051 0.967450 0.000000 0.000000 0.000000 0.441515 0.316796 8.634047 6.039561 16.749270 -19.873417 -7.392681 4.553562 17.286908 11.400139 6.126317 -0.298734 0.000000 0.000000 0.000000 1.377945 0.485429 -7.980678 -1.648056 -1.504363 -7.824792 -0.115208 -2.391047 11.829851 0.062473 -0.294788 0.036841 -0.494468 0.006069 14.881241 8.319871 -6.851048 19.017422 0.000000 0.000000 0.000000 0.551736 0.811784 11.648706 -15.871801 -14.422467 1.192266 -51.381713 20.228169 10.664278 -2.422981 -34.512502 1.688934 0.000000 0.000000 0.000000 -2.552891 1.663376 11.292102 20.943074 3.268071 1.096764 50.303421 -16.375689 16.645540 -6.153962 30.323533 -4.772548 0.000000 0.000000 0.000000 
16.480581 34.523903 1.623857 -179.950964 6.146949 -178.920384 -0.230904 -1.980303 9.602863 -11.033805 -4.453475 -21.827686 18.253759 7.103070 18.998108 -5.878285 4.686820 0.967938 0.000000 0.000000 0.000000 0.421818 0.351707 8.630380 5.981867 16.726853 -19.915145 -7.344233 4.543568 17.392395 11.354605 6.134371 -0.304012 0.000000 0.000000 0.000000 1.299993 0.688196 -7.839687 -1.559684 -1.575746 -7.775969 -0.102344 -2.420085 11.634181 0.063067 -0.188617 0.126733 -0.461314 -0.118267 14.767547 8.292099 -6.792482 18.899460 0.000000 0.000000 0.000000 0.536083 0.626002 11.567479 -15.943890 -14.533975 1.256447 -51.164858 20.033775 11.081388 -2.329066 -34.548900 1.699086 0.000000 0.000000 0.000000 -2.521395 1.551806 11.190444 20.820718 3.160209 1.153319 50.397111 -16.429322 16.595744 -6.137141 30.281541 -4.918140 0.000000 0.000000 0.000000 
16.445711 34.522453 1.640128 -179.940555 5.934822 -178.923499 -0.235858 -1.913999 9.588582 -11.037234 -4.379259 -21.952643 18.165679 7.102900 19.033434 -6.131784 4.638280 0.985093 0.000000 0.000000 0.000000 0.402898 0.403501 8.658133 5.922883 16.609261 -19.997981 -7.277460 4.519294 17.500376 11.274248 6.140207 -0.308196 0.000000 0.000000 0.000000 1.256282 0.770700 -7.712364 -1.433812 -1.658027 -7.717520 -0.071831 -2.472261 11.509764 0.011130 -0.236360 0.111173 -0.485685 -0.260022 14.691177 8.195791 -6.706167 18.761032 0.000000 0.000000 0.000000 0.535338 0.683353 11.470428 -16.058961 -14.590380 1.406066 -50.731452 19.839975 11.502524 -2.349501 -34.636340 1.691553 0.000000 0.000000 0.000000 -2.508211 1.622340 11.148989 20.683857 3.156984 1.207068 50.533097 -16.459151 16.629861 -6.179278 30.325900 -4.899931 0.000000 0.000000 0.000000 
16.420563 34.525211 1.677696 -179.934135 5.690194 -178.931039 -0.256756 -1.804141 9.580854 -10.956570 -4.316913 -22.118842 18.032830 7.127810 19.059773 -6.431422 4.590558 0.996234 0.000000 0.000000 0.000000 0.409237 0.529639 8.705322 5.873900 16.414919 -20.090045 -7.216290 4.479706 17.586600 11.199211 6.140332 -0.309800 0.000000 0.000000 0.000000 1.229478 0.909015 -7.602053 -1.243594 -1.742281 -7.642883 -0.128184 -2.468343 11.388998 0.006934 -0.210209 0.154386 -0.475294 -0.236601 14.509675 8.057788 -6.510293 18.585717 0.000000 0.000000 0.000000 0.561531 0.705628 11.326455 -16.150559 -14.679046 1.510892 -50.312874 19.692890 12.260934 -2.254200 -34.672827 1.614619 0.000000 0.000000 0.000000 -2.509469 1.652923 10.954825 20.576363 3.148357 1.347135 50.750512 -16.478378 16.579545 -6.223875 30.474019 -4.974236 0.000000 0.000000 0.000000 
16.402973 34.535782 1.735231 -179.833854 5.459612 -178.935670 -0.233310 -1.676669 9.566497 -10.835017 -4.296303 -22.261439 17.915721 7.185248 19.041094 -6.711296 4.566408 1.013044 0.000000 0.000000 0.000000 0.566308 0.700541 8.755590 5.767215 16.129616 -20.158812 -7.211922 4.471658 17.625233 11.175148 6.138731 -0.267435 0.000000 0.000000 0.000000 1.229105 1.098027 -7.549013 -1.037021 -1.680495 -7.549060 -0.111818 -2.347260 11.418802 0.047851 -0.172269 0.137317 -0.447619 -0.054879 14.343360 7.836025 -6.245197 18.281345 0.000000 0.000000 0.000000 0.519657 0.569337 11.224855 -16.183430 -14.864466 1.556257 -49.949802 19.685404 12.900446 -2.363491 -34.753976 1.753842 0.000000 0.000000 0.000000 -2.624433 1.541648 10.707000 20.552463 3.031539 1.546453 51.012883 -16.594868 16.425314 -6.280412 30.781337 -5.040292 0.000000 0.000000 0.000000 
16.390717 34.554131 1.796628 -179.830466 5.196976 -178.962089 -0.299368 -1.614662 9.520888 -10.685951 -4.320237 -22.344590 17.829208 7.243906 18.989855 -6.969514 4.523879 1.056750 0.000000 0.000000 0.000000 0.652954 0.788073 8.776312 5.643741 15.797737 -20.201864 -7.126371 4.429016 17.641906 11.189980 6.116670 -0.243772 0.000000 0.000000 0.000000 1.225943 1.156649 -7.400971 -0.850689 -1.756054 -7.464614 -0.175030 -2.351358 11.233209 0.035482 -0.205838 0.145087 -0.515519 -0.012506 14.157761 7.434641 -6.005246 17.987773 0.000000 0.000000 0.000000 0.461214 0.696894 11.059369 -16.223451 -14.771778 1.633159 -49.609604 19.667405 13.663507 -2.315960 -34.793523 1.807256 0.000000 0.000000 0.000000 -2.707118 1.632340 10.552587 20.628452 3.062756 1.782114 51.254996 -16.813276 16.159007 -6.473039 31.216451 -5.186524 0.000000 0.000000 0.000000 
16.384552 34.577736 1.847922 -179.818568 4.875602 -178.973537 -0.366690 -1.626154 9.449474 -10.523290 -4.399423 -22.364462 17.754016 7.309579 18.880270 -7.149397 4.482328 1.104471 0.000000 0.000000 0.000000 0.764633 0.789649 8.766763 5.503461 15.386924 -20.240642 -6.959698 4.381763 17.672136 11.271157 6.089499 -0.177571 0.000000 0.000000 0.000000 1.246670 1.169918 -7.375337 -0.681918 -1.749789 -7.400822 -0.272873 -2.299605 11.283549 0.029734 -0.189570 0.100163 -0.600483 0.051833 13.856539 6.913316 -5.634620 17.752095 0.000000 0.000000 0.000000 0.387872 0.717021 10.830225 -16.253128 -14.683527 1.744039 -49.435208 19.620598 14.418102 -2.330605 -34.690456 1.995333 0.000000 0.000000 0.000000 -2.817650 1.670767 10.286987 20.836826 3.052823 2.065998 51.404485 -17.116763 15.770497 -6.631979 31.610839 -5.252670 0.000000 0.000000 0.000000 
16.381336 34.605808 1.902702 -179.881351 4.504408 -178.994355 -0.463366 -1.673120 9.363392 -10.361851 -4.526483 -22.328189 17.604698 7.381484 18.717307 -7.285263 4.396593 1.115558 0.000000 0.000000 0.000000 0.783493 0.737230 8.737110 5.358957 14.992467 -20.282086 -6.740216 4.321021 17.730160 11.380236 6.047106 -0.128163 0.000000 0.000000 0.000000 1.226216 1.151971 -7.263198 -0.551984 -1.703910 -7.368145 -0.388325 -2.241545 11.104082 0.037410 -0.151540 0.131857 -0.703053 0.060039 13.638471 6.209172 -5.230998 17.358794 0.000000 0.000000 0.000000 0.316301 0.687938 10.660132 -16.359643 -14.643828 1.965608 -49.319174 19.406162 15.367451 -2.161289 -34.590967 2.100479 0.000000 0.000000 0.000000 -2.925480 1.654656 10.060808 21.191606 3.048597 2.398714 51.366294 -17.387027 15.392352 -6.884221 31.978713 -5.344055 0.000000 0.000000 0.000000 
16.380171 34.633583 1.965606 -179.894069 4.074890 -179.029818 -0.564600 -1.800573 9.261937 -10.166278 -4.696460 -22.266164 17.506367 7.389203 18.508821 -7.293759 4.338482 1.124134 0.000000 0.000000 0.000000 0.945996 0.583918 8.687159 5.126947 14.540458 -20.315467 -6.532209 4.243731 17.802985 11.531171 5.977367 -0.090463 0.000000 0.000000 0.000000 1.295435 0.981100 -7.042000 -0.378728 -1.613006 -7.418094 -0.508184 -2.188170 10.807809 0.028590 -0.087704 0.171008 -0.859219 0.050288 13.360546 5.336514 -4.796570 17.009270 0.000000 0.000000 0.000000 0.179945 0.712192 10.444205 -16.423398 -14.382695 2.135105 -49.223486 18.960912 16.429573 -1.893163 -34.353413 2.229540 0.000000 0.000000 0.000000 -3.037579 1.718277 9.850984 21.664469 3.206774 2.770656 51.028190 -17.548873 15.066998 -7.087759 32.098761 -5.330743 0.000000 0.000000 0.000000 
16.387453 34.665585 2.019555 -179.995169 3.516218 -179.040924 -0.650958 -1.913304 9.164035 -9.975063 -4.860933 -22.226791 17.212208 7.412728 18.286553 -7.317626 4.176491 1.162785 0.000000 0.000000 0.000000 0.964998 0.419849 8.600139 5.018087 14.135137 -20.296763 -6.371159 4.217692 17.905698 11.630150 5.857256 -0.080160 0.000000 0.000000 0.000000 1.272965 1.026540 -6.999809 -0.244988 -1.598162 -7.503661 -0.656389 -2.245080 10.807927 0.037461 -0.124117 0.092670 -1.004764 0.101356 13.059657 4.376985 -4.227960 16.708258 0.000000 0.000000 0.000000 0.095513 0.812900 10.178968 -16.523570 -14.243606 2.215602 -49.051229 18.564618 17.534018 -1.672366 -34.203344 2.589670 0.000000 0.000000 0.000000 -3.162507 1.760683 9.661632 22.146014 3.611808 3.144452 50.415607 -17.348783 14.879951 -7.168990 31.879553 -5.148682 0.000000 0.000000 0.000000 
16.402546 34.692997 2.057793 179.984077 2.929617 -179.060608 -0.688299 -2.137694 9.081248 -9.773338 -5.028506 -22.189212 17.001294 7.444274 18.117857 -7.291752 4.027630 1.233891 0.000000 0.000000 0.000000 1.116348 0.126879 8.475046 4.916716 13.748867 -20.180057 -6.248291 4.211692 17.990331 11.701706 5.694692 -0.160188 0.000000 0.000000 0.000000 1.350148 0.840029 -6.880121 -0.082782 -1.462244 -7.668802 -0.776289 -2.222241 10.612803 0.038783 -0.131055 0.141874 -1.157286 0.145465 12.769927 3.330258 -3.691769 16.415530 0.000000 0.000000 0.000000 0.028749 0.952660 10.002923 -16.552772 -13.986756 2.292514 -48.550648 18.278846 18.723167 -1.311784 -34.557882 2.952466 0.000000 0.000000 0.000000 -3.243040 1.841720 9.495378 22.609629 4.074323 3.556297 49.568172 -16.965830 14.534702 -7.376183 31.566102 -5.137574 0.000000 0.000000 0.000000 
16.433437 34.721054 2.068377 179.914163 2.297247 -179.074064 -0.731240 -2.450698 9.015127 -9.451182 -5.270288 -22.174576 16.578399 7.608664 18.053051 -7.197822 3.931589 1.376873 0.000000 0.000000 0.000000 1.240816 -0.290748 8.306987 4.861551 13.414506 -19.965848 -6.155488 4.223349 18.075054 11.723801 5.483078 -0.337926 0.000000 0.000000 0.000000 1.431600 0.443009 -6.869051 0.037973 -1.212411 -7.993104 -0.854305 -2.095884 10.663687 0.044983 -0.052565 -0.010190 -1.244085 0.176751 12.604477 2.357070 -3.105387 16.324116 0.000000 0.000000 0.000000 -0.020530 0.885325 9.811699 -16.371299 -13.462542 2.359684 -47.632271 18.547821 19.923523 -0.931894 -36.032205 3.518521 0.000000 0.000000 0.000000 -3.301780 1.862572 9.404365 23.030332 4.539732 3.954807 48.499493 -16.417101 13.855977 -7.355164 31.312674 -4.936094 0.000000 0.000000 0.000000 
